{
  "source": "C:\\Users\\Peter\\Desktop\\stuff\\MIUN\\quantitative_research\\video_compression\\videos\\BVI-HD\\BVI-HD_CDVL_videos\\ORIG\\PlasmaSlowRandom_1920x1080_60fps.mp4",
  "output": "C:\\Users\\Peter\\Desktop\\stuff\\MIUN\\quantitative_research\\video_compression\\compressed_videos\\BVI-HD\\h264\\3\\PlasmaSlowRandom_1920x1080_60fps_h264.mp4",
  "codec": "h264",
  "ok": "Input #0, mov,mp4,m4a,3gp,3g2,mj2, from 'C:\\Users\\Peter\\Desktop\\stuff\\MIUN\\quantitative_research\\video_compression\\videos\\BVI-HD\\BVI-HD_CDVL_videos\\ORIG\\PlasmaSlowRandom_1920x1080_60fps.mp4':\n  Metadata:\n    major_brand     : isom\n    minor_version   : 512\n    compatible_brands: isomiso2avc1mp41\n    encoder         : Lavf54.28.101\n  Duration: 00:00:05.00, start: 0.000000, bitrate: 23030 kb/s\n  Stream #0:0[0x1](und): Video: h264 (High 4:4:4 Predictive) (avc1 / 0x31637661), yuv420p(progressive), 1920x1080, 23026 kb/s, 60 fps, 60 tbr, 60 tbn (default)\n    Metadata:\n      handler_name    : VideoHandler\n      vendor_id       : [0][0][0][0]\n[out#0/mp4 @ 0000026016f9a600] Codec AVOption b:a (set bitrate (in bits/s)) has not been used for any stream. The most likely reason is either wrong type (e.g. a video option with no video streams) or that it is a private option of some decoder which was not actually used for any stream.\nStream mapping:\n  Stream #0:0 -> #0:0 (h264 (native) -> h264 (libx264))\nPress [q] to stop, [?] for help\n[libx264 @ 0000026017454840] using cpu capabilities: MMX2 SSE2Fast SSSE3 SSE4.2 AVX FMA3 BMI2 AVX2\n[libx264 @ 0000026017454840] profile High, level 5.0, 4:2:0, 8-bit\n[libx264 @ 0000026017454840] 264 - core 165 r3222 b35605a - H.264/MPEG-4 AVC codec - Copyleft 2003-2025 - http://www.videolan.org/x264.html - options: cabac=1 ref=5 deblock=1:0:0 analyse=0x3:0x113 me=hex subme=8 psy=1 psy_rd=1.00:0.00 mixed_ref=1 me_range=16 chroma_me=1 trellis=2 8x8dct=1 cqm=0 deadzone=21,11 fast_pskip=1 chroma_qp_offset=-2 threads=18 lookahead_threads=3 sliced_threads=0 nr=0 decimate=1 interlaced=0 bluray_compat=0 constrained_intra=0 bframes=3 b_pyramid=2 b_adapt=1 b_bias=0 direct=3 weightb=1 open_gop=0 weightp=2 keyint=250 keyint_min=25 scenecut=40 intra_refresh=0 rc_lookahead=50 rc=cbr mbtree=1 bitrate=3000 ratetol=1.0 qcomp=0.60 qpmin=0 qpmax=69 qpstep=4 vbv_maxrate=3000 vbv_bufsize=3000 nal_hrd=none filler=0 ip_ratio=1.40 aq=1:1.00\nOutput #0, mp4, to 'C:\\Users\\Peter\\Desktop\\stuff\\MIUN\\quantitative_research\\video_compression\\compressed_videos\\BVI-HD\\h264\\3\\PlasmaSlowRandom_1920x1080_60fps_h264.mp4':\n  Metadata:\n    major_brand     : isom\n    minor_version   : 512\n    compatible_brands: isomiso2avc1mp41\n    encoder         : Lavf62.3.100\n  Stream #0:0(und): Video: h264 (avc1 / 0x31637661), yuv420p(tv, progressive), 1920x1080, q=2-31, 3000 kb/s, 60 fps, 15360 tbn (default)\n    Metadata:\n      encoder         : Lavc62.11.100 libx264\n      handler_name    : VideoHandler\n      vendor_id       : [0][0][0][0]\n    Side data:\n      cpb: bitrate max/min/avg: 3000000/0/3000000 buffer size: 3000000 vbv_delay: N/A\nframe=    0 fps=0.0 q=0.0 size=       0KiB time=N/A bitrate=N/A speed=N/A elapsed=0:00:00.50    \nframe=   34 fps= 33 q=24.0 size=       0KiB time=00:00:00.50 bitrate=   0.8kbits/s speed=0.485x elapsed=0:00:01.03    \nframe=   96 fps= 61 q=25.0 size=     256KiB time=00:00:01.50 bitrate=1398.4kbits/s speed=0.956x elapsed=0:00:01.56    \nframe=  144 fps= 68 q=24.0 size=     512KiB time=00:00:02.36 bitrate=1772.4kbits/s speed=1.12x elapsed=0:00:02.10    \nframe=  195 fps= 75 q=24.0 size=    1024KiB time=00:00:03.21 bitrate=2608.0kbits/s speed=1.23x elapsed=0:00:02.61    \nframe=  260 fps= 83 q=23.0 size=    1280KiB time=00:00:04.30 bitrate=2438.6kbits/s speed=1.37x elapsed=0:00:03.13    \n[mp4 @ 0000026016f9a700] Starting second pass: moving the moov atom to the beginning of the file\n[out#0/mp4 @ 0000026016f9a600] video:1655KiB audio:0KiB subtitle:0KiB other streams:0KiB global headers:0KiB muxing overhead: 0.264019%\nframe=  300 fps= 89 q=-1.0 Lsize=    1660KiB time=00:00:04.96 bitrate=2737.3kbits/s speed=1.48x elapsed=0:00:03.36    \n[libx264 @ 0000026017454840] frame I:3     Avg QP: 4.93  size: 10281\n[libx264 @ 0000026017454840] frame P:76    Avg QP:14.31  size:  7093\n[libx264 @ 0000026017454840] frame B:221   Avg QP:17.14  size:  5087\n[libx264 @ 0000026017454840] consecutive B-frames:  1.3%  1.3%  0.0% 97.3%\n[libx264 @ 0000026017454840] mb I  I16..4: 95.6%  4.4%  0.0%\n[libx264 @ 0000026017454840] mb P  I16..4:  1.2%  4.0%  0.1%  P16..4:  1.0%  0.4%  0.1%  0.0%  0.0%    skip:93.2%\n[libx264 @ 0000026017454840] mb B  I16..4:  0.0%  1.0%  0.0%  B16..8:  2.3%  1.2%  0.3%  direct: 0.4%  skip:94.8%  L0:45.8% L1:39.4% BI:14.8%\n[libx264 @ 0000026017454840] 8x8 transform intra:57.7% inter:95.7%\n[libx264 @ 0000026017454840] direct mvs  spatial:95.5% temporal:4.5%\n[libx264 @ 0000026017454840] coded y,uvDC,uvAC intra: 42.5% 51.1% 49.5% inter: 1.6% 2.4% 1.6%\n[libx264 @ 0000026017454840] i16 v,h,dc,p: 98%  1%  1%  0%\n[libx264 @ 0000026017454840] i8 v,h,dc,ddl,ddr,vr,hd,vl,hu: 14% 16% 24%  5%  8%  7% 10%  7%  9%\n[libx264 @ 0000026017454840] i4 v,h,dc,ddl,ddr,vr,hd,vl,hu: 13% 15%  9%  6% 15% 11% 16%  7%  9%\n[libx264 @ 0000026017454840] i8c dc,h,v,p: 72% 12%  9%  8%\n[libx264 @ 0000026017454840] Weighted P-Frames: Y:1.3% UV:1.3%\n[libx264 @ 0000026017454840] ref P L0: 56.7%  2.5% 19.5% 11.4%  9.7%  0.2%\n[libx264 @ 0000026017454840] ref B L0: 81.3% 13.4%  4.0%  1.3%\n[libx264 @ 0000026017454840] ref B L1: 96.4%  3.6%\n[libx264 @ 0000026017454840] kb/s:2710.70\n",
  "seconds": 3.5459144115448,
  "probe_out": {}
}